<svg xmlns="http://www.w3.org/2000/svg" xmlns:xlink="http://www.w3.org/1999/xlink" fill="white" xml:space="preserve" x="0" y="0" style="enable-background:new 0 0 858.9 612.28" viewBox="0 0 858.9 612.28"><defs><path id="SVGID_00000119818174105607741540000006838646513794377636_" d="M-8.5 8.5h858.9v612.28H-8.5z"/></defs><clipPath id="SVGID_00000122715383138283884780000000192575150128422027_"><use xlink:href="#SVGID_00000119818174105607741540000006838646513794377636_"/></clipPath><g style="clip-path:url(#SVGID_00000122715383138283884780000000192575150128422027_)"><defs><path id="SVGID_00000078042904513634609720000005793267919030284443_" d="M-9 7.28h860v614H-9z"/></defs><clipPath id="SVGID_00000166642671718793282470000006408069281880496539_"><use xlink:href="#SVGID_00000078042904513634609720000005793267919030284443_" /></clipPath><g ><defs><path id="SVGID_00000155837665101921246370000011849575460221585326_" d="M-8.52 8.71h858.9v612.28H-8.52z"/></defs><clipPath id="SVGID_00000118392382196260484480000016150299740515346862_"><use xlink:href="#SVGID_00000155837665101921246370000011849575460221585326_"/></clipPath><path d="M480.73 475.53c-8.5-.76-14.46-.87-22.52 1.53-3.06.91-6.33 2.31-9.26 3.21-1.52.47-8.87 3.02-9.48 3.03.79-2.35 12.23-7.27 12.7-7.77 0 0-.07-.59-1.53-.04-.31.12-.9.38-1.29.54-.73.32-1.75.89-2.47 1.26.38-1.57 5.64-3.68 7.33-4.3 7.16-2.64 13.22-2.91 20.27-1.07.87.23 8.57 2 9.26 2.73 2.03.15 10.97 3.87 12.39 5.13-2.07 0-4.22-.33-6.48-.34-6.02-.01-12.27 1.06-17.79 2.68-6.7 1.97-13.57 4.83-16.4 10.89-3.53.25-7.58-.15-11.11.12-1.84.14-3.17.4-4.78.98l-2.94 1.25c-.09.05-.28.18-.36.26-.49.47-.11-.05-.42.57 4.18-.01 8.19-.33 12.42-.34 1.96 0 11.32.35 12.3-.14-.25-.37-2.11-.91-2.55-1.16 11.68-6.66 29.75-8.73 43.8-8.17l-5.17 1c-3.45.79-13.94 1.87-15.72 2.88.55.33 1.74.25 2.47.24l7.67-.28c9.89-.95 20.25-1.49 30.11-.65l29.1 2.61c1.67.14 3.31.24 4.85.4 1.1.11 3.85.16 4.8.72-16.35.33-33.08-.02-49.48-.01-5.61 0-38.11-.49-42.89.57l-3.38 1.2c-.87.46-.61.31-.89.95 3.68.06 7.59-.24 11.42-.24l334.07-.01h11.51c3.01 0 9 .33 11.67-.09-.02-6.28-3.41-24.53-4.63-31.44-.57-3.24-1.52-6.85-2.09-9.94-2.46-13.24-10.71-42.03-16.57-56.16-2.35-5.66-4.55-11.54-6.95-17.24-13.27-31.56-32.99-64.11-54.21-91.14-7.32-9.32-14.66-17.73-22.39-26.06-4.12-4.43-7.67-8.2-11.94-12.29-4.21-4.03-8.46-8.29-12.47-11.76-8.77-7.58-16.55-14.94-26.36-21.88l-14.07-10.15c-24.42-17.03-49.67-30.75-78.09-42.98-14.79-6.36-38.57-14.62-54.22-18.53-3.08-.77-6.33-1.78-9.51-2.51-3.4-.78-6.58-1.43-9.93-2.23-6.68-1.59-13.44-2.64-20.32-3.91-3.47-.64-7.05-1.12-10.55-1.61-3.58-.51-6.97-1.09-10.6-1.41-3.69-.32-7.36-.84-10.93-1.14-11.78-1-23.12-1.46-35.1-1.41-55.79.21-110.34 12.26-160.21 33.46-46.66 19.84-88.12 46.6-119.16 74.62-62.1 56.06-107.31 131.34-125.22 213.9-1.46 6.73-2.73 13.59-3.73 20.46-.23 1.56-3.01 19.07-2.78 20.75l.13.46c1.1.45 40.69.29 45.61.29l46.22.03c35.97.02 275.26.45 276.43-.13-4.4-3.39-15.1-2.52-21.69-2.49-23.28.11-46.56.27-69.84.14l-2.42-.06c-1.33-.24.8.25-.35-.09l-.31-.13c1.94-.39 35.59-3.32 37.8-3.49 11.46-.84 18.41-.37 29.47.28 1.81.11 8.4 1 9.44.19-3.12-2.15-17.66-2.31-21.3-3.63 2.15-1.1 21.47.92 24.71 1.51 7.41 1.35 13.88 3.29 19.97 6.64l-.45 1.24c3.62.19 7.34.17 11.03.17 3.63 0 7.6.18 11.19-.01-1.33-2.23-6.57-2.98-8.97-2.97-3.11.01-9.01.36-11.78-.02-.16-2.42-1.24-3.13-2.44-4.25-6.52-6.13-22.01-9.67-31.01-9.24-1.85.09-4.62.5-6.39.42 3.53-2.12 9.79-4.16 14.26-5.39 8.51-2.35 16.47-4.79 25.36-2.3 1.32.37 2.75.67 3.9 1.14 4.68 1.87 6.45 4.16 8.98 5.93 1.34.94 5.23 2.93 5.46 4.42-.34-.08-1.75-1.05-2.32-1.33-.88-.44-1.79-.86-2.65-1.19-5.87-2.26-11.39-4.01-17.85-5.2-6.18-1.13-14.45-1.86-20.91.28-.95.31-1.89.63-2.89.95-.83.27-1.82.46-2.59.89-.27.15-.23.14-.39.28 4.9-.14 3.55-.9 10.95-.39 8.07.55 18.41 1.08 26.09 3.38.77.23 1.51.46 2.4.64l2.24.8c-4.28-.17-8.44-1.37-12.76-1.68-4.36-.31-9.17-.98-13.58-1 .65.54 4.75 1.23 5.77 1.58 1.91.65 3.51 1.39 5.27 1.99 3.51 1.2 7.74 2.11 11.38 3.17 6.27 1.83 12.78 3.55 16.83 8.61.58.73.83 1.89 1.58 2.33.74-.43.65-1.05 1.01-1.81l20.39-.09c.5 1.12.26 1.8 1.61 1.85 1.3-1.72 1.03-3.6 6.57-6.6 5.55-3.01 13.52-4.82 19.6-6.85l7.46-2.44c.43-.12.74-.21 1.26-.34l1.29-.6c-4.32-.09-16.74 2.26-18.79 1.82l-.46-.17c1.38-.53 2.85-.76 4.36-1.06 1.5-.29 3.04-.75 4.39-1.03 10.98-2.25 18.46-2.72 29.95-3.02-1.53-.47-5.72-2.03-7.42-1.97M199.88 199.11c1.46-.6 3.25-2 4.66-2.83l14.05-8.15c30.84-17.28 71.12-33.77 105.71-42.06 35.7-8.55 68.38-12.87 105.8-12.28 6.57.1 21.52.86 27.91 1.59 8.78 1 17.67 1.88 26.03 3.36 2.24.4 4.29.58 6.47 1.05 6.02 1.29 12.71 2.31 18.52 3.64 15.49 3.54 31.29 7.66 46.11 12.91 3.49 1.23 7.29 2.7 10.73 3.93 1.01.36 9.8 3.42 9.97 3.91 1.16.28 2.52.84 3.45 1.3 1.15.57 2.19.88 3.31 1.36 13.83 5.92 36.44 16.9 48.41 24.43 3.64 2.29 7.74 4.47 11.05 7.11 2.5 1.99 2.98 2.1 5.65 3.46 1.94.99 3.61 2.12 5.63 3.42 5.41 3.49 10.9 7.4 16.02 11.23 3.64 2.72 6.72 5.08 10.42 7.95 10.46 8.11 19.76 16.73 28.99 25.52 4.71 4.48 9.06 9.05 13.57 13.68 4.44 4.57 8.55 9.38 12.89 14.36 2.7 3.09 5.69 6.78 8.25 9.91 3.79 4.63 12.35 15.89 15.62 20.92 1.38 2.12 2.42 3.48 3.7 5.39 8.66 12.98 16.58 25.97 23.89 39.88 5.31 10.12 10.19 20.44 14.6 31.05l7.66 19.61c6.65 18.08 12.15 37.64 15.8 56.84.48 2.52 1.09 5.11 1.48 7.52.43 2.7.75 5.15 1.26 7.92.78 4.25 2.09 12.24 2 16.31l-160.67.04c.45-.37 1.21-.46 1.8-.55 4.09-.59 8.45-1.54 12.24-2.55 4.39-1.17 9.15-2 13.52-3.16 4.43-1.18 8.99-2.05 13.51-3.3 9.49-2.61 18.63-5.13 28.85-4.74 9.43.36 24.33 4.82 32.03 10.06.97.66 3.95 3.17 4.91 3.35-.09-2.11-2.33-8.78-3.09-10.82-3.31-8.88-11.5-17.28-21.59-20.2-8.5-2.46-16.1-2.02-23.95.99-6.45 2.47-11.95 6.6-17.84 10.01-11.67 6.74-25.47 12.23-39.06 16.62-9.14 2.95-13.79 4.29-23.66 4.29-9.06 0-18.17-.26-27.06-.7.87-.49 24.2-2.69 27.66-3.2 9.14-1.37 17.49-2.37 26-4.66 7.71-2.08 15.99-4.82 22.78-7.9 8.83-4 11.8-5.91 19.4-11.32 5.89-4.19 12.29-8.47 17.8-12.86 4.86-3.87 10.68-10.45 13.9-16.81 6.57-12.95 4.22-19.18 7.2-31.09 1.1-4.39.22-4.33 2.03-5.68 3.18-2.37-.04-9.46-.33-12.46 1.04.76 5.54 9.29 6.38 11 12.38 25.28 20.67 50.11 24.93 78.21l1.9 15.27 3.55.25c2.74-.01 8.32.38 10.46-.15.03-.06.05-.13.06-.19.01-.05.04-.12.05-.19.31-1.52-.05.9.07-.4 0-.04 0-.57-.01-.62-.03-.46-.13-.83-.16-1.1l-.83-6.86c-1.16-8.69-2.46-17.34-4.53-25.77l-1.87-8.23c-.6-2.67-1.37-5.43-2.04-8.08-1-3.97-2.59-7.6-3.55-11.58-.31-1.28-.91-2.47-1.3-3.73-.22-.72-.35-1.42-.57-2.1-.23-.69-.5-1.11-.75-1.83-1.31-3.67-2.55-7.44-4.13-11.04l-1.48-3.55c-.52-1.15-.94-2.36-1.47-3.58-1.03-2.35-2.06-4.56-3.1-6.99l-3.29-6.8c-2.3-4.29-4.25-9.22-6.91-13.29-.63-.97-3.13-5.72-3.23-6.71 2.39 1.74 12.92 22.29 14.61 26.16 4.75 10.91 9.51 21.56 13.05 33.18l3.55 11.8c.72 2.64 1.47 5.32 2.22 8.04l1.84 8.23c.33 1.6.42 3.03.79 4.53.99 4.04 1.48 8.76 2.34 12.77.3 1.4 2.6 16.06 1.78 17.73l23.08.36c-.01-6.75-4.45-31.03-6.27-38.23-1.01-3.97-1.9-7.83-2.83-11.66-2.81-11.71-6.32-22.62-10.25-34.02-6.11-17.7-13.75-34.57-22.18-51.08-7.43-14.54-17.83-32.08-27.5-45.58-2.28-3.19-3.96-5.65-6.16-8.56l-12.75-16.51c-6.46-8.01-20.24-23.47-28.05-30.71-2.59-2.4-4.94-4.9-7.46-7.27-7.55-7.08-15.19-13.99-23.45-20.55-7.33-5.83-17.45-13.45-25.4-18.83-1.3-.88-7.77-5.88-8.53-6.03.36.77.85 1.04 1.33 1.75 2.18 3.25 3.34 6.7 4.68 10.45 2.77 7.83 2.34 16.92 6.47 23.8 2.75 4.58 8.91 9.84 9.16 15.09.46 9.39-11.15 9.97-14.37 7.07 4.43.02 7.39.65 10.26-1.85 2.72-2.37 2.14-5.78.34-8.71-3.8-6.16-6.74-6.06-9.88-14.16-3.26-8.42-.25-16.77-7.62-28.51-.84-1.33-1.53-2.33-2.52-3.54-.84-1.04-1.62-2.71-3.18-2.87.07 1.72 1.25 3.32 1.84 4.78.64 1.58 1.18 2.84 1.79 4.49 3.28 8.84 2.78 17.46 5.85 25.44.54 1.4 1.82 3.16 2.01 4.41-1.08-.34-2.4-2.36-3.01-3.41-1.74-2.99-2.27-6.21-2.95-9.63-.92-4.67-1.9-10.32-5.12-13.39-2-1.9-4.92-3.7-7.65-4.64-6.54-2.24-15.78-.45-20.57 2.48-1.96 1.2-6.06 4.28-4.44 7.76 1.55 3.33 5.98 2.11 8.9 2.78.41.09.29.07.51.21-.39.56-.67.46-1.46.65-3.32.82-6.54 2.32-9.48 4.04-3.49 2.04-6.2 4.45-8.67 6.87-2.58 2.53-4.68 5.08-7.08 8.46-1.09 1.54-5.09 8.53-5.03 10.21 1.32-.09 5.81-2.69 7.04-3.32 6.6-3.39 15.29-7 22.69-8.45 6.23-1.22 12.85-1.08 18.49.93 3.83 1.37 6.74 3.5 9.92 5.8.96.7 2.32 1.39 2.65 2.57-3.08-.34-10.74-3.85-14.74-4.74-3.53-.78-14.82-1.97-17.88-.46.11 1.19 1.48 1.3 2.58 1.75 6.91 2.82 13.75 6.06 20.72 8.79 1.85.72 4.06 1.45 6.05 2.4 5.12 2.43 10.26 7.09 14.73 10.49 3.23 2.46 7.07 6.44 9.1 7.86 7.93 5.57 16.91 7.12 26.78 6.92 2.64-.05 11.34-.78 14.23-1.48.25-.06.27-.08.49-.17l.32-.17c-.22-.66-1.56-1.77-2.14-2.4-2.52-2.7-8.49-8.84-10.9-10.91-1.61-1.38-3.04-2.82-4.54-4.13-3.07-2.69-6.39-5.51-9.58-7.99l-.68-.53c-.21-.18-.3-.28-.52-.46-1.95-1.7-4.13-3.09-6.06-4.85-.63-.58-1.75-1.19-1.7-2.33.74.1 2.02 1.35 2.63 1.8l7.66 5.68c5.83 4.35 14.04 11.79 19.09 16.81l6.47 6.85c2.01 2.1 1 .71 1.46 2.58 3.11 1.06 7.61.3 10.54 5.81 3.74 7.02-2.42 9.77-2.68 11.22-.3 1.66 6.41 5.11 4.1 10.4-2.51 5.72-5.76 4.9-10.41 5.17.11 1.25 4.33 6.48 5.33 8.17.85 1.45 1.73 2.8 2.65 4.22.82 1.28 1.59 2.57 2.72 3.91 1.96.07 5.57-1.07 7.39-1.49 4.23-.97 3.14 2.23 2.62 4.95-.53 2.75-2.9 12.47-2.92 14.31.69-.33 2.5-2.33 3.23-2.98 1.17-1.05 2.2-1.9 3.49-2.77 2.57-1.73 4.85-3.18 7.7-4.59 3.33-1.65 15.65-6.17 19.13-5.26.66 7.22.18 23.19-1.54 29.29-2.27 8.03-3.8 9.98-6.66 16.72-2.46 5.8-3.63 12.32-4.77 18.51-1.64 8.89-7.1 12.26-12.85 18.21-1.32 1.37-2.36 2.68-3.35 4.31-.53.87-2.26 4.5-2.68 4.8.02-1.05.49-2.17.68-3.18 1.4-7.66-1.71-15.5-5.34-21.82-.65.19-5.45 4.2-6.2 4.84-16.46 13.99-11.36 36.8-23.53 52.79-5.7 7.49-15.97 14.46-24.73 18.87-9.58 4.83-21.21 8.41-32.78 10.87-23.54 5.01-56.8 4.5-81.82 2.1-13.37-1.28-43.63-4.53-55.77-9.6-2.99-1.25-11.81-6.54-12.15-9.85 7.74-.27 15.77.23 23.53.31 7.74.08 15.59.18 23.42.14 3.93-.02 8.01-.16 11.92-.07 2.6.06 6.96 1.65 9.47 2.38 6.21 1.82 12.5 3.12 19.19 4.43 19.47 3.8 45.3 5.95 65.76 3.7 2.16-.24 16.44-2.27 19.1-3.02.37-.1.34-.09.6-.23.31-.17.17-.09.36-.29-2.05-.24-4.22.04-6.29.08l-18.98.34c-16.24.01-31.54-.91-47.35-3.53-4.35-.72-17.51-3.18-21.17-4.26 2.33-.05 7.94-.76 10.68-1.05 3.53-.37 7.15-.69 10.7-1.22 19.85-2.95 36.4-8.85 54.41-16.58 10.58-4.54 21.72-10.11 31.42-16.02 7.43-4.53 14.46-8.98 21.04-14.48.99-.83 5.43-4.56 6.12-5.64-.19-.88-1.84-2.79-2.36-3.7-1.61.52-4.65 3.55-6.15 4.72-6.09 4.74-11.82 9.23-18.49 13.39-13.23 8.25-44.75 22.57-58.5 26.69-5.47 1.64-10.82 3.37-16.55 4.62-3.79.83-14.7 2.72-18.42 2.63 1.19-.27 3.18-.86 4.46-1.19 1.54-.39 3.05-.74 4.52-1.15 4.87-1.37 22.84-6.82 25.1-9.08-.03-.87-.73-1.93-1.29-2.6-1.93-2.35-5.86.31-8.01 1.23-11.15 4.82-34.85 11.01-47.14 13.24-16.3 2.95-33.41 2.87-49.98 2.04-2.45-.12-4.59-.34-6.88-.47l-29.26-1.14c-4.55-.12-10.19-.22-14.53.4-10.12 1.46-24.42 7.57-28.51 16.91-2.29 5.22-.73 9.02-1.23 13.32-1.49-.34.34-.7-4.57-.73l-5.25-.03c-3.53-.01-7.1-.03-10.62.09.06-2.77.48-4.46.17-7.37-.69-6.46-3.76-10.38-8.65-13.99-5.97-4.41-13.12-7.36-21.97-8.3-7.8-.83-21.35-.21-29.58.04-9.75.3-19.17 1.21-29.07 1.38-22.69.38-33.1.45-55.11-5.18-11.22-2.87-24.06-5.96-34.49-10.89-.91-.43-4.63-2.25-5.14-2.3-1.43-.16-2.96 2.62-3.03 4.4 2.36.91 4.97 2.12 7.58 3.14 5.22 2.05 10.57 3.82 15.99 5.41 1.77.52 6.95 1.61 8.17 2.25-8.78.62-26.95-4.91-34.68-7.42-11.49-3.74-32.89-13.36-44.17-19.24-11.81-6.15-15.2-8.62-25.6-16.38-1.89-1.41-10.72-8.55-12.19-8.74-.57.77-2.01 2.76-2.15 3.37 1.41 1.77 4.12 3.98 6.2 5.64 23.8 19.05 58.25 35.6 87.55 43.49 6.36 1.71 12.8 3.05 19.75 4.08 3.43.51 6.88.98 10.53 1.39 1.64.18 9.93.67 10.67.97-6.62 1.68-14.28 3.13-21.16 4.32-21 3.66-39.11 3.86-60.32 3.44-1.68-.03-11.34-.66-11.83-.36 2.13 1.31 16.54 3.12 20.16 3.5 7.54.79 15.45.81 23.16.67 17.44-.3 45.94-3.67 62.54-8.81 1.71-.53 2.94-.97 4.56-1.53 2.11-.73 2.75-.69 5.16-.7l35.53-.26c6.26-.08 17.7-.93 23.24.21-.66 1.34-4.26 4.49-5.69 5.5-7.03 4.96-15.56 6.83-24.44 8.42-34.83 6.25-87.44 10.63-120.68 3.08-24.97-5.67-45.05-14.36-57.83-29.77-7.21-8.7-8.67-21.42-11.63-32.18-1.35-4.91-3.93-11.34-6.8-15.19-1.53-2.07-3.49-3.94-5.39-5.51l-6.17-4.71c-1.47 1.57-4.04 8.27-4.7 11.03-.54 2.28-.89 4.58-.8 7.12l.65 6.7c-3.75-9.23-7.8-10.45-13.96-16.95-6.64-7-5.55-13.21-7.75-22.95-3.41-15.12-8.96-17.99-9.47-36.44-.09-3.3-.58-12.48.02-15.22 5.48-.83 14.91 3.31 19 5.39 7.9 4.01 12.99 9.31 14.41 10.07-.5-4.69-5.71-14.54-2.94-18.88 2.83-.58 5.31 1.08 8.17 1.13 2.6.05 3.79-2.83 4.94-4.57 1.34-2.02 2.4-3.65 3.78-5.72.93-1.4 3.56-4.53 3.83-5.76-4.46-1.48-8.31-.22-10.44-5.89-.91-2.41.52-4.68 1.56-6.11.77-1.05 3.31-3.87 3.53-4.49-2.18-2.57-4.14-4.74-2.92-9.42.82-3.16 3.51-5.33 6.71-6.21l2-.42c.84-.35 4.41-4.74 5.06-5.47 6.03-6.75 12.79-12.73 19.76-18.57 2.04-1.72 12.65-10.55 14.84-10.74-.35.76-3.96 3.41-4.84 4.17-1.72 1.48-3.22 2.69-4.99 4.08-6.57 5.16-17.95 15.64-23.63 21.81-.84.91-1.44 1.54-2.24 2.39-.71.76-1.79 1.52-1.88 2.65 5.22.19 9.85 1.68 15.42 1.85 9.74.31 19.29-1.42 27.49-6.47 3.99-2.46 5.89-4.96 8.94-8.02 2.94-2.95 5.69-5.28 9.07-7.88 6.29-4.83 14.78-8.49 22.29-11.62 1.84-.77 11.04-4.37 11.47-5.42-2.96-2.28-13.6.35-16.77 1.33-3.5 1.07-11.99 4.49-15.12 4.62.62-1.1 2.31-1.86 3.26-2.55 15.86-11.42 27.97-11.44 45.69-2.44 2.76 1.4 12.93 7.8 14.23 7.85.68-4.36-12.61-17.74-15.75-20.46-8.45-7.31-13.51-8.49-24.24-11.64 3.95-.65 9.59 1.35 12.93 0 1.65-.67 2.86-2.27 2.49-4.54-1.02-6.22-16.29-10.81-25.01-8.11-8.19 2.53-10.99 7.51-12.78 15.32-.87 3.81-1.34 7.74-2.76 11.14-1.09 2.61-4.41 6.7-6.28 7.66.27-.74 1.1-1.57 1.57-2.28.56-.83.91-1.37 1.4-2.24.91-1.65 1.54-3.21 2.09-5.14 1.13-4 1.59-8.18 2.62-12.15.52-1.98 1.21-3.75 1.94-5.55 1.53-3.77 4.37-12.74 7.48-14.15.24 1.65-3.79 5.86-5.51 11.18.89-.37 3.53-2.69 4.71-3.45 11.25-7.29 34.84-.78 33.25 9.46-.53 3.4-2.57 3.39-3.16 5.01 6.04 3.87 5.49 3.02 10.95.13 10.96-5.81 21.19-11.07 32.84-16 7.69-3.26 15.82-6.17 23.87-8.82 4.15-1.37 8.29-2.58 12.62-3.78 1.85-.51 11.68-2.92 12.55-3.5-.23-1.09-2.28-2.36-3.25-2.94-2.09-1.25-2.56-1.82-4.32-1.05-3.48 1.52-6.91.16-7.77-3.03-.78-2.89 1.23-3.62 1.05-4.85-.13-.88-2.13-2.41-2.76-3.31-1.49-2.15 3.05-6.32 4.3-7.1-.17-1.17-.68-1.4-1.3-2.37-1.55-2.41-.17-5.29 2.07-6.57 1.95-1.11 3.64.25 5.75-.05 1.72-.25 3.02-1.27 4.59-2.1 4.2-2.22 6-2.41 9.33.5 4.5 3.94 1.09 7.7.8 9.66 1.09 1.06 3.96 1.73 5.64 2.28 2.83.93 3.55 1.01 2.42 4.53-.95 2.96-2.26 5.44-4.82 6.89-3.97 2.25-1.97-.68-3.43 4.9-.33 1.25-1.01 2.15-1.22 3.2 3.32-.55 6.74-1.58 10.1-2.28 10.37-2.15 20.81-4.12 31.44-5.49 14.99-1.94 30.42-2.91 46.1-2.96 11.69-.04 23.94.41 35.55 1.46 3.71.34 7.43.86 11.08 1.19l10.9 1.45c8.62 1.22 17.43 2.78 25.81 4.89 1.5.38 3.68 1.05 5.24 1.09-.23-1.34-1.01-2.01-1.28-3.23-.42-1.9.14-2.32.33-3.59-1.31-.98-5.48-1.11-6.91-7.82-1.33-6.27 5.12-3.87 7.81-6.51-.14-.63-.83-1.38-1.09-2.28-.28-1-.48-1.68-.48-2.77 0-4.27 4.01-9.89 10.53-5.65 1.44.94 2.28 1.99 4.44 2.08 4.3.18 7.05-.69 8.5 4.31.31 1.08.28 1.84-.37 2.53-.31.33-.54.51-.83.79l-.72.99c.59 1.04 2.33 1.49 3.33 2.83 1.23 1.64 1.01 3.08 1.8 4.29 3.26.27 7.41-3.01 13.18-2.1 6.28.98 2.45 8.09 2.44 10.73.86.74 2.92 1.2 4.06 1.58 1.47.49 2.54.86 4.18 1.3 1.56.42 2.52.97 3.91 1.48 1.3.48 2.76.94 3.95 1.34 1.48.5 2.46 1.14 3.86 1.56 3.07.92 7.99 3.41 11.26 4.68l7.4 3.3c2.43 1.29 4.65 2.33 7.13 3.58 1.3.65 2.26 1.3 3.49 1.94.62.33 1.22.61 1.78.87l5.08 2.98c.86.43 2.79 1.12 2.82 2.07-1.47.37-2.87-.68-3.94-1.22-2.43-1.22-4.66-2.64-7.13-3.78-1.22-.56-2.08-1.16-3.4-1.82l-3.63-1.82c-1.35-.6-2.37-1.04-3.61-1.65-7.03-3.44-15.39-6.95-22.57-9.54-2.73-.98-5.37-1.94-7.85-2.82-1.43-.51-6.65-1.95-7.73-2.82-.07-1.77.55-.72.64-3.63.14-4.91.78-6.81-5.82-6.46-2.21.12-4.85.75-7.26.98-1.35.13-2.53.12-3.4.87-3.24 2.76-1.2 1.94-.39 4.76 1 3.47-1.74 6.33-5.5 6.21-3.52-.11-3.24-1.72-6.12.42-.67.5-1.58 1.06-2.47 1.57-.74.42-1.91.88-2.08 1.72l6.69 1.65c13.35 3.04 30.27 8.84 42.6 14.07 7.84 3.33 14.89 6.46 22.25 10.25 3.39 1.75 7.11 3.56 10.53 5.62 1.03.62 4.38 2.74 5.32 2.71.03 0 5.43-2 5.82-2.19-.1-.98-2.43-2.5-2.93-5.11-1.91-9.87 18.09-14.29 26.74-11.95 2.97.8 5.7 2.24 8.09 3.99.83.6 1.31 1.34 2.32 1.65-.12-2.27-1.48-5.16-2.27-7.16-.45-1.14-.82-2.19-1.37-3.28-.52-1.02-.85-2.19-1.34-3.11-1.14-2.16-8.6-5.97-10.9-7.25-16.66-9.24-31.07-16.66-49.04-24.06-4.34-1.79-8.58-3.48-13.17-5.18l-13.34-4.8c-4.42-1.71-9.25-2.92-13.93-4.44-11.44-3.73-32.56-8.7-44.14-10.56-5.34-.85-10.5-1.79-15.84-2.57-16.78-2.48-33.54-3.72-50.51-3.98-64.09-.97-124.3 13.92-179.54 39.51-14.11 6.54-28.42 14.1-41.7 22.08-1.42.85-4.41 3.23-5.45 3.67-.03-.04-.06-.1-.08-.13a6.546 6.546 0 0 1-.43-.81c-.38-.75-.24-.13-.44-1.04zM14.35 490.56c-.02.19-.04.35-.01.47l14.68.3c-.74-5.24 4.59-32.19 6.12-38.6 5.6-23.57 13.33-45.15 23.91-66.48 2.4-4.84 4.83-9.99 7.71-14.9 1.46-2.49 7.2-12.74 9.08-13.55-.13 1.88-6.3 11.94-7.75 14.47-7.53 13.22-15.88 31.74-21.06 46.17-7.21 20.07-13.7 45.86-16.13 67.78-.2 1.84-.61 3.24-.75 5.1h7.01c-.02-7.61 3.58-27.54 5.39-35.36 2.63-11.37 5.33-21.52 9.04-31.96 5.79-16.27 13.28-34.35 22.21-49.26 1.42-2.37 2.75-3.96 4.07-6.12.81 1.41-5.16 11.07-6.34 13.36-2.27 4.4-4.59 8.99-6.76 13.61-8.41 17.86-16.46 41.24-20.67 60.89-2.4 11.22-3.65 19.27-5.19 30.31-.21 1.53-.73 3.12-.91 4.49 3.75.18 11.08.38 14.63-.06-.76-2.58 3.05-24.77 3.78-28.49 2.96-15.17 9.17-36.2 15.4-50.02.99-2.19 9.31-20.42 10.7-21.97 2.99 8.47 4.38 14.81 5.65 24.6 1.27 9.83 2.77 15.42 7.29 23.01 6.22 10.42 13.84 15.66 23.29 22.12 12.37 8.46 13.57 10.87 28.6 17.03 7.38 3.03 14.87 5.4 22.85 7.6 12.41 3.42 26.5 4.6 39.45 6.01 3.99.43 10.21.65 13.72 1.48-8.88.52-18.25.64-27.21.73-9.93.09-14.31-1.29-23.71-4.21-14.39-4.47-26.98-9.45-39.5-16.41-12.7-7.07-23.62-16.81-41.72-11.26-10.74 3.3-18.09 10.28-21.74 20.01-.5 1.34-3.37 9.85-2.93 10.77 1.36.35 1.88-.85 2.65-1.55.6-.54 1.51-1.28 2.4-1.85 5.4-3.48 11.87-5.71 18.36-7.49 17.07-4.69 27.93-1.25 44.16 2.93 9.06 2.33 18.59 4.53 27.8 6.49 1.65.35 13.98 2.52 14.52 2.39l-164.22.18c.11-10.23 6.47-41.92 8.95-51.12 4.62-17.17 8.33-29.03 14.65-45.49 10.69-27.84 25.68-55.94 41.17-78.91 8.74-12.97 22.14-31.11 32.45-42.45 2.43-2.67 4.59-5.35 7.18-7.96l14.87-15.21c4.39-4.15 10.97-10.58 15.56-14.32 2.74-2.23 5.21-4.62 8.06-6.87 2.84-2.24 5.49-4.47 8.42-6.72 5.55-4.27 11.3-8.56 17.33-12.75 2.92-2.03 5.9-4.03 8.92-6.02 2.36-1.55 7.1-5.38 9.48-5.8-.52 3.32-6.56 6.32-9.18 15.35-1.94 6.7-1.41 14.21-3.61 20.82-2.15 6.45-6.55 9.71-9.1 15.33-2.72 6 .83 9.71 7.29 9.56 2.22-.05 4.9-.86 5.45-.45-2.1 1.02-6.59 2.4-9.32 1.83-2.88-.61-5.52-2.32-6.45-5.07-1.93-5.74 3.78-12.56 6.1-16.12 7.92-12.15 3.62-20.29 9.34-31.05.44-.82 1.87-2.82 2.11-3.64-1.15.51-3.12 2.02-4.21 2.77l-12.84 8.96c-39.17 28.81-70.94 62.02-98.31 103.75-24.4 37.23-41.73 76.07-53.27 119.96-3.69 14.02-6.23 28.23-8.14 42.53-.23 1.73-.76 4.68-.77 6.33zm661.13-11.54.75-.6c1.07-.5 4.33-1.59 6.78-2.71 2.44-1.12 4.9-2.4 6.98-3.71 4.44-2.78 9.25-5.03 13.75-7.65 14.97-8.71 17.93-20.79 20.31-22.38-4.25 11.3-9.46 17.08-18.37 24.12-3.2 2.53-9.27 5.89-13.77 7.6-4.05 1.54-11.92 5.34-16.43 5.33z"/><path d="M403.93 440.01c.43-.67 3.34-2.97 5.36-6.07 4.59-7.05 6.67-17.34 8.41-25.72 2.13-10.23 1.92-21.17.93-31.79-.59-6.32-.18-15.96-.13-22.61.03-3.84.27-7.01.5-10.7.22-3.66.38-7.38.48-11.1.1-3.83.51-6.96.6-10.7.09-3.81.03-7.68-.15-11.31l-.58-10.69c-.04-3.52-.52-20.22.46-21.92 1.43 2.12.74 38.59.73 44.53-.01 7.59-.52 14.73-.51 22.2.01 7.46.52 14.49.58 22 .06 7.58.14 15.02.25 22.61.18 12.88 3.33 25.91 7.45 37.69 3.11 8.9 8.3 11.92 9.23 13.38-.15.6-1.99 2.74-2.45 3.37-2.43 3.28-4.56 7-6.15 10.79-.93 2.2-5.44 15.37-5.44 17.27 5.58.52 9.58-7.62 11.07-11.79 1.07-2.98 4.01-15.63 5.22-17.75.52.19 3.67 2.88 4.5 3.53 4.67 3.66 9.33 6.17 14.97 8.66 7.48 3.31 15.68 5.33 24.71 6.76 9.66 1.54 19.7 1.61 29.91 1.77 10.28.17 20.47 1.06 30.88.51 8.93-.47 19.53-1.93 27.6-3.99 4.28-1.09 8.13-2.05 12.3-3.46 6.98-2.35 15.17-6.58 21.57-10.14 7.17-3.99 8.58-4.68 15.66-7.92 4.81-2.2 11.12-6.76 16.6-7.14-.39.65-.92.88-1.62 1.32-.48.3-.98.64-1.57 1.04-3.86 2.64-8.91 9.88-6.51 13.76.84 1.36 2.23 1.14 3.87.71 2.76-.72 5.21-1.75 7.65-2.8 3.91-1.68 11.79-4.51 14.39-6.82 2.58-2.29.21-5.11-1.79-6.73-3.05-2.48-4.2-2.09-6.96-3.52.72-.59 8.42-2.92 10.08-3.11 3.05-.36 5.74 2.97 8.68 4.31 6.31 2.87 15.61-4.04 16.19-9.13-1.99.61-7.45 6.48-17.99 2.28-.93-.37-4.94-1.83-5.29-2.17 1.26-3.01 10.35 2.72 17.54 1.44 2.64-.47 5.64-1.79 6.67-4.06.8-1.79 1.84-7.08.39-8.85-.98-.04-1.87.75-2.97 1.25-.93.43-1.94.89-2.92 1.32-9.45 4.1-15.7 1.21-20.17 4.86-2.45 2-1.26 4.79-2.68 5.77-3.81 2.63-14.79 5.61-19.4 5.84.33-1.31 2.41-4 3.26-5.21 10.13-14.29 11.06-20.87 16.37-36.1.27-.77.68-1.48.81-2.28.01-.07.01-.33 0-.49 0-.04-.04-.08-.04-.16 0-.09-.03-.11-.05-.23l-5.7-.23c-3 13.87-17.39 36.82-28.97 47.34-4.56 4.15-8.93 7.49-14.74 10.49-11.16 5.75-24.72 9.64-38.78 11.91-12.35 1.99-22.67 2.04-35.01-.1-1.8-.31-3.51-.67-5.27-.98-1.41-.24-4.18-.51-5.06-1.26.24-1.15 2.95-3.18 3.54-3.75 2.27-2.19 8.9-9.79 8.59-12.58-4.24-.35-10.61 1.72-13.93 2.99-5.26 2.02-8.26 5.08-11.9 4.77-.58-1.23-.09-1.61-2.01-1.6-1.18.01-2.03.23-2.89.81-.96.65-2.77 2.79-3.01 4.12 3.03-.09 2.87.2 5.17.87 1.71.49 3.05.75 4.69 1.2 1.55.43 3.14.75 4.86 1.19 2.5.64 3.74.72 3.67 2.15-2.56.74-8.25-.18-10.65-.88-4.91-1.42-6.59-3.27-8.11-3.79-.68.73-1.54 1.95-1.59 3.07 1.36 1.84 5.92 4.36 8.78 5.36 3.43 1.2 7.85 1.75 12 1.93 5.68.25 7.09.28 12.65 1.46 2.91.61 8.76 2.27 11.47 2.26-4.47.41-8.61-.67-12.56-1.53-7.87-1.73-18.45-.39-25.51-2.97-1.47-.54-8.64-3.66-9.02-5.08.03-.93 2.66-5.61 3.25-6.61 3.55-6.03 7.12-2.51 13.23-6.54 1.79-1.18 3.84-3.17 4.31-5.46-2.85.17-12.64 4.04-15.93 5.51-4.46 2-5.64 8.66-8.92 12.29-1.18 1.31-6.18 6.06-7.9 6.31.52-1.62 2.88-3.1 4.13-4.23 10.11-9.14 3.97-16.12 21.26-19.5 8.03-1.57 6.87.29 8.86-3.49.45-.84 1.11-1.72 1.35-2.78-2.11-.08-8.08.55-10.2 1.04-3.88.89-6.14 2.11-8.22 2.65.74-1.58 6.07-3.7 8.15-4.19 1.78-.42 3.66-.62 5.59-.67 1.25-.03 5.14.17 6.02-.03 1.23-.28 4.59-5.74 5.11-7.22.86-2.44-4.76-4.68-6.7-5.25-7.82-2.31-14.32 1.23-17.65 5.75-6.01 8.14-7.99 22.99-16.51 32.55-5.86 6.57-10.4 4.29-17.61 1.76-10.72-3.76-23.49-12.24-29.59-19.44-4.33-5.1-5.39-10.41-6.73-17.95-1.24-6.97-1.76-14.18-3.22-21.15-1.46-6.98-3.54-12.65-4.44-20.16-1.53-12.81.27-33.83 1.39-47.1.64-7.59 1.63-13.9 3.65-20.71 3.86-12.99 10.45-25.81 2.26-39.04-2.35-3.8-5.61-7.4-9.54-9.06-1.46-.62-2.83 1.09-3.7 1.81-3.99 3.29-7.7 8.04-9.73 14.71-2.26 7.45-.73 14.44 1.31 21.24 1.9 6.33 3.81 12.73 4.88 19.56 1.13 7.19 2.35 14.51 2.88 21.74.87 11.83.86 24.02.77 35.94-.09 11.18-3.63 20.67-4.82 31.89-.66 6.26-1.74 15.38-3.79 20.85-2.36 6.3-5.98 10.64-10.27 14.13-3.97 3.23-9.97 6.86-15.17 9.45-3.06 1.52-15.03 6.6-17.99 6.41-1.85-.12-5.71-4.08-6.73-5.56-8.37-12.19-6.98-10.38-13.11-23.64-2.85-6.16-5.17-10.96-11.19-13.41-6.31-2.56-16.04-.03-18.09 4.48.25.78 3.29 5.2 3.94 6.01 2.37 3 3.68 1.67 7.83 1.59 3.21-.07 6.02.45 8.48 1.47 2.06.85 4.89 2.61 5.61 3.99-.56-.29-1.09-.73-1.79-1.14-.64-.37-1.13-.55-1.96-.89-1.38-.56-2.84-.99-4.47-1.35-3.23-.73-7.37-.71-10.89-.59.05.1 3.27 4.85 3.45 4.97.08.05 6.59.61 7.53.76 17.39 2.7 10.99 9.41 24.5 21.13.56.48 1.73 1.45 1.84 2.16-1.87.1-6.72-4.77-7.91-6.18-2.33-2.75-3.72-5.34-5.59-8.34-3.25-5.2-8.24-5.62-14-7.14-1.9-.5-3.8-1.36-5.83-.72.02 2.15 3.15 3.93 4.91 5.02 1.96 1.23 1.6.66 3.96.95 4.83.61 6.48 1.35 8.87 5.79.55 1.03 1.24 2.25 1.85 3 .66.81 2.27 1.67 2.47 2.41l-4.75 2.75c-7.39 4.61-16.39 4.04-24.95 4.49-6.56.34-12.46 2.94-19.22 2.86.59-.6 1.86-.67 2.77-.88.94-.22 1.94-.46 2.79-.65 2.08-.44 3.83-.81 5.93-1.17 3.88-.67 8.5-1.34 12.58-1.54 4.36-.21 8.63-.42 12.46-1.67 2.89-.94 7.32-3.32 8.53-5.41-.11-.93-1.03-2.16-1.62-2.77-.71.13-5.54 4.2-13.77 4.93-1.47.13-4.45.59-5.44-.75 1-1.72 7.1-2.44 9.51-3.07 2.44-.64 7.63-1.82 8.76-3.6-.21-1.56-1.5-2.58-2.98-2.96-1.53-.4-3.27-1.22-4.6-1.31.41.85 1.38 1.19 1.83 1.85-2.02 1.54-5.58.19-7.24-.8-4.65-2.78-15.75-7.62-21.01-6.29.79 3.1 6.63 10.06 9.08 12.56.37.38 3.43 2.98 3.61 3.34-5.41 2.01-15.13 3.51-21.54 3.93-7.88.52-16.29-.05-23.65-1.38-14.62-2.63-27.03-5.67-39.21-11.72-5.38-2.67-10.68-6.73-14.88-10.54-4.39-3.99-8.21-8.13-12.13-13.3-3.68-4.85-6.59-10.01-9.57-15.88-3.06-6.03-5.06-11.68-7-18.23-1.91-.14-2.96.38-6.4-.03l4.02 12.69c2.96 9.47 5.54 14.53 10.89 22.44 1.02 1.51 6.76 8.9 6.94 9.68-1.23-.09-2.53-.5-3.78-.76-22.72-4.62-15.38-7.61-19.27-11.18-3.72-3.42-8.47-.97-14.34-2.23-5.99-1.28-10.39-4.37-12.52-4.9-.03.05-.06.12-.08.17-.02.04-.06.11-.08.17l-.21.86c-.77 5.59 1.31 11.09 8.02 12.08 7.11 1.05 13.41-4.25 18.04-1.76l-2.68 1.1c-13.66 5.17-15.13 1.01-20.46.31.24 2.63 4.08 4.95 6.26 6.2 8.94 5.11 13.92-3.75 18.23-3.25 1.34.15 8.72 2.18 9.48 2.77-.45.92-3.11 2.11-4.14 2.72-2.39 1.41-4.13 3.14-4.38 5.95-.25 2.76 1.04 2.76 5.43 4.92 2.69 1.32 17.5 8.07 20.49 6.43 2.14-2.41-1.03-7.84-2.09-9.47-.86-1.32-1.9-2.7-2.87-3.59-.91-.83-2.96-1.92-3.43-2.99 4.05.23 8.61 1.95 11.95 3.96 3.73 2.23 6.63 3.66 10.2 5.53 3.26 1.71 6.72 3.83 10.09 5.66 3.48 1.89 6.77 3.75 10.15 5.41 14.34 7.02 31.99 10.99 50.77 11.77 10.31.43 20.43-.6 30.68-.59 10.39.01 19.81-.33 29.71-1.6 13.01-1.67 24.51-5.43 35.04-11.95 1.76-1.09 3.2-2.09 4.66-3.21 1.12-.87 3.22-2.97 4.27-3.39 2.19 3.8 3.93 12.74 5.53 17.27 1.65 4.66 5.43 11.87 10.6 11.95.08-1.32-1.48-7.84-1.9-9.33-.89-3.13-1.69-5.58-2.91-8.42-2.43-5.51-5.48-9.96-8.86-13.64"/><path d="M534.65 201.16c-.42 6.78 8.08 23.56 11.07 28.95 4.41 7.96 9.6 15.03 16.57 20.78.52.43 1.06.62 1.18 1.34-1.27.04-4.17-2.06-5.22-2.73-1.5-.96-3.64-2.09-5.22-2.88-3.53-1.77-7.64-3.31-11.15-5.19-6.01-3.22-9.25-6.01-13.42-11-.89-1.06-1.88-2.2-3.08-2.99l-1.27-.99c.04-.03.11-.13.13-.09l.59-.27c.35-.09.6-.09.95-.12 4.09-.43 7.1-4.41 6.48-8.79-1.36-9.55-19.62-9.58-19.76 1.19-.07 5.37 3.51 8.72 8.64 8.9.99 1.2.22.94 3.09 3.77.69.68 3.02 2.68 3.1 3.6l-24.62-6.7c-.28-.14-.21-.1-.39-.27.3-.8.57-.77 1.22-1.26 1.55-1.16 2.61-2.33 3.58-4.11 4.66-8.62-2.34-19.01-9.96-17.04-4.55 1.18-8.43 7.89-6.13 13.17 1.63 3.76 7.79 8.79 7.97 12.52-.96-.36-3.72-4.58-4.36-5.42-1.5-1.96-2.67-3.43-4.27-5.4-1.47-1.81-2.81-4.22-4.78-4.94-2.56-.94-5.99-.89-8.38.22-2.73 1.27-3.55 2.78-3.12 6.62.3 2.65 1.95 5.21 3.31 6.62 6.32 6.55 16.15 2.22 22.1 4.14.05 2.03-1.24 1.29-3.69 5.46-2.05 3.48-2.59 10.7.8 13.59 1.5 1.28 4.19 2.32 6.86 1.71 4.64-1.05 8.16-4.5 8.08-9.72-.06-3.87-3.21-11.46-6.13-11.78-.82.33-.94.81-1.93 1.19-.87.33-1.89.35-2.96.33.24-1.23 1.17-1.18 2.4-1.47 2.1-.5 2.13.02 2.06-2.01 2.81-.07 4.22 2.82 5.42 4.9 2.39 4.13 2.39 6.44 3.08 7.43 2.92.2 5.41-.87 12-.03 7.3.93 13.27 3.02 19.9 5.47l6.68 3.01c.81.42 1.66.56 2.07 1.29-2.03.34-4.3.41-6.46.67-5.75.7-12.04 1.92-17.5 3.62-1.74.54-3.67 1.05-5.46 1.64-1.81.6-3.53 1.24-5.23 1.79-21.27 6.89-44.84 23.53-58.61 40.72-13.71 17.12-23.42 38.11-23.44 62.11-.02 21.28 7.03 38.63 14.87 54.5 5.77 11.68 12.43 21.89 20.95 31.15.97 1.06 3.19 3.68 5.1 3.58 1.89-.1 4.37-2.61 4.71-4.25l-4.57-4.17c-3.27-3.22-10.33-10.37-12.15-14.32 1.13.77 2.97 3.07 4.25 4.26 1.64 1.53 3 2.52 4.81 3.87 1.56 1.16 3.46 2.48 5.08 3.6l5.14 3.52c1.21-.51 2.47-3.97 2.45-5.46-11.72-5.98-25.45-17.13-32.43-28.34-8.77-14.09-13.37-30.81-13.37-48.14 0-21.36 8.53-41.14 20.65-56.61 11.02-14.07 26.73-27.27 43.2-34.27 24-10.19 49.51-10.96 74.89-5.34 8.17 1.81 17.94 5.04 25.25 8.88l10.91 6.04c3.72 2.18 6.66 4.47 10.03 7.12 5.1 4.01 8.88 7.93 12.36 13.06.31.46 3.23 5.29 3.29 5.33 1.56-.41.81-4.56.54-5.52-2.48-8.85-10.99-17.36-17.46-23.31-.97-.89-3.32-2.55-3.68-3.21 9.44-.33 26.11 4.96 34.82 8.62 11.61 4.88 18.6 9.46 26.36 17.23 14.06 14.06 26.07 34.24 26.09 61.57 0 9.09-1.43 18.01-3.22 26.09-1.46 6.58-3.99 19.64.89 24.6 1.64-.08 4.1-2.17 4.32-3.67.12-.77-.31-2.51-.42-3.37-.15-1.11-.16-2.6-.16-3.87v-.2c.01-9.35 3.17-22.42 3.47-31.08.11-3.05.21-8.1.72-10.74.53 10.61.46 17.18-1.21 28.38-.84 5.65-1.98 14.06-1.72 19.99.7-.27.19.05.75-.46 1.91-1.73 5.17-6.89 6.08-9.05 4.4-10.42 1.5-37.38-1.41-47.39-.78-2.68-3.47-11.57-3.45-14.44.01-2.14 1.09-2.15.29-5.17-.8-3.04-2.08-6.21-3.39-8.74-2.27-4.38-4.42-7.27-7.29-10.88-.61-.77-2.28-2.36-2.36-3.66 1.04.29 2.43 1.5 3.55 2.05 1.42.69 2.63.9 4.3 1.37 8.96 2.53 14.91-2.47 10.57-8.13-1.88-2.45-5.77-4.09-5.95-5.61 1.58-1.42 3.71-1.42 5-3.54.98-1.62 1.54-5.34.38-7.24-2.39-3.92-8.14-4.03-13.52-3.3-7.75 1.05-15.86 1.88-23.85.04l-6.73-1.94c-19.45-6.45-35.05-15.82-59.34-14.73-2.18.1-2.04.54-3.56-.64-7.65-5.95-23.54-11.57-33.21-13.19-2.58-.43-5.61-.32-7.52-1.8-1.83-1.42-3.41-2.75-5.11-4.37-11.18-10.68-21.06-24.06-25.68-39.33l-2.08-7.37c-1.5-.19-2.92-.41-4.02.45M128.58 298.1c-.45.95-4.46 2.78-6.61 5.35-2.31 2.76-2.23 6.35.96 7.9 2.78 1.35 7.02 1.7 10.05.69 3.64-1.21 6.25-3.6 7.89-4.14-.52 2.05-6.5 8.36-8.75 12.37-2.53 4.52-5.15 9.67-5.53 15.64-.36-.24-.11-.06-.4-.33-2.03-1.87-4.43-2.92-7.15-3.59-1.96-.49-7.99-1.7-10-1.11-.48 6.02 4.71 19.16 6.67 24.65.58 1.62 2.05 4.68 3.86 2.25.88-1.19 1.75-4.06 2.27-5.61.94-2.79 2.62-10.11 4.07-11.68-.05 1.69-3.14 13.38-3.8 16.81-1.96 10.09-3.28 28.37-.67 38.09.69 2.59 1.84 5 3.22 7.1.7 1.07 3.85 5.42 4.7 5.86-.27-1.94-.13-4-.23-6.1-.07-1.64-.36-3.87-.55-5.64-.4-3.71-.97-7.35-1.49-11.25-.52-3.96-.68-7.46-.97-11.56-.15-2.14-.29-10.37.32-11.86.21.51.32 7.2.36 8.41.32 11.43 3.7 20.59 3.45 32.91-.06 2.92-1.03 5.81.61 7.75 2.21 2.61 3.97.84 4.91-1.95 3.16-9.32-2.53-29-3.49-39.91-2.64-30.22 12.03-58.19 33.79-74.69 10.28-7.8 24.07-13.89 37.26-17.24 3.97-1.01 11.45-2.62 15.8-2.33-.32.71-5.8 5.59-6.75 6.53-4.73 4.75-16.6 17.97-14.05 25.53.52-.24 4.85-6.64 6.22-8.33 6.87-8.42 14.55-13.37 24.4-19.2 40.82-24.13 96.99-22.79 132.7 9.15 10.14 9.07 17.93 17.59 25.98 32.14 7.04 12.72 12.25 29.25 11.14 47.2-1.01 16.39-6.62 33.1-14.02 44.31-11.84 17.94-29.5 25.2-31.03 27.35.32.99 2.42 3.88 3.27 4.51 1.06-.27 7.97-5.72 9.39-6.82 1.58-1.22 3.05-2.29 4.53-3.55 1.13-.96 3.32-3.16 4.4-3.76-.41.97-6.63 8.34-7.71 9.53-1.62 1.79-7.63 7.5-8.44 8.97.58.96 3.45 3.38 5.1 3.63 1.72-.84 8.95-9.31 10.65-11.55 10.06-13.19 17.58-28.08 22.92-43.72 8.75-25.61 7.55-50.91-3.76-73.64-9.94-19.97-23.09-35.04-41.34-47.49-15.98-10.91-36.01-19.06-55.82-21.96-3.27-.48-6.98-.56-10.22-1.05.43-.56 1.24-.99 1.89-1.4 9.37-5.88 20.89-10.29 32.06-10.38 2.15-.02 4.68.27 6.72.13 1.03-3.55 2.52-6.26 4.64-9.3.84-1.2 2.13-1.54 2.6-2.29-8.92.51-20.84 4.87-21.8 4.87.93-1.85 3.29-3.42 4.59-5.09.54-.69.71-1.62 1.48-2.01.68-.29 8.98.19 9.27-8.04.39-11.47-17.27-12.24-19.27-2.92-.77 3.59.89 7.46 3.96 8.93.91.44 2.56.47 3.33 1.05-4.05 3.14-4.76 4.74-8.06 7.84-6.84 6.42-16.64 10.24-24.35 15.61-1.65 1.15-2.98 2.49-5.54 2.66.57-1.07 2.11-1.94 2.99-2.78 3.09-2.95 5.48-5.79 8.06-9.3 6.61-8.99 11.55-20.17 15.48-30.96.53-1.45.97-2.69 1.41-4.21.51-1.76 1.38-3.39-.57-4.16-.81-.32-1.66-.19-2.45.1-1 .36-.84.77-1.14 1.93-4.89 19-17.73 37.15-32.04 49.09-1.54 1.29-1.35 1.45-3.9 1.97-9.92 2.02-17.53 4.17-26.73 8.2-2.71 1.18-5.12 2.41-7.69 3.78-1.82.97-1.84 1.52-4.36 1.26-15.04-1.52-30.69 3.5-43.11 8.63-11.57 4.78-21.66 10.52-36.31 10.04-8.13-.27-26.56-6.48-24.92 6.02.23 1.75.84 3.02 1.89 3.97.88.75 3.27 1.48 3.76 2.19"/><path d="M303.25 357.49c-5.37-.42-6.82-.07-10.87 2.53-3 1.92-5.37 4.23-7.33 6.4-4.9 5.44-5.7 12.3-6.39 20.9-2.22-1.95-1.5-11.84-.54-15.5.72-2.77 3.99-10.85 5.83-11.93.02.04.03.1.04.13.08.62.19.06-.43 1.69l-1.67 5.89c.75-.45 1.43-1.56 2.05-2.27 1.96-2.26 3.92-4.23 6.65-5.86 2.97-1.78 9.09-3.81 12.55-3.24l.85.31c2.29-.3 6.33 2.31 8.46 3.53 2.84 1.62 5.04.23 9.99-.51 14.15-2.11 16.44 3.61 19.57 4.04-.24-2.06-6.02-7.71-7.3-8.84-2.81-2.47-5.54-4.52-9.52-6.62-5.99-3.16-13.03-4.57-20.02-4.11-2.59.17-4.65.98-6.96 1.22.3-1.36 1.91-3.74 2.49-5.54.71-2.21.96-4.73.53-7.13-.44-2.46-1.33-4.01-2.69-5.24-.89-.81-3.6-2.8-5.35-2.82-.44.83-1.27 1.81-1.92 2.73-7.95 11.25-19.54 17.37-24.95 27.93-2.29 4.48-3.76 9.35-4.15 15.01-.95 14 3.91 20.56 10.3 28.04 5.26 6.16 13.26 14 21.08 17.09-2.44.4-6.46-1.26-8.65-1.86-6.04-1.68-11.61-2.26-17.66-3.94-10.11-2.82-8.17-2.85-18.46-1.22-3.31.53-6.88.74-10.34.3-3.12-.4-5.83-1.15-8.54-2.12-2.42-.87-5.59-2.43-8.73-2.18-.38 5.04 1.46 11.48 3.14 15.43 6.09 14.35 22.24 19.94 37.88 17.36 16.01-2.64 18.13-17.4 40.12-15.7 5.98.46 13.2 2.69 16.27 2.83-.35-1.2-2.94-4.2-3.65-4.86-2.71-2.53-16.11-.68-26.9-14.68-2.19-2.84-4.94-6.8-6.65-10.09-1.25.8-.98 1.9-1.66 2.84-.1-2 2.14-11.12 2.84-13.24 6.75-20.51 27.15-17.18 29.85-19.02-.36-1.64-2.56-4.14-3.5-4.98-1.42-1.32-3.48-2.45-5.66-2.7m-77.58 51.45c.86.16 4.58 2.48 5.59 3.01 3.82 2 8.08 4.03 12.17 5.38 2.32.76 6.75 1.39 7.18 1.68-3.51 1.27-12.24-.92-15.13-2.21-7.34-3.28-8.07-6.33-9.81-7.86zm18.72 17.74 3.01-.21c11.51-.68 15.84-6.97 25.94-9.58 2.98-.77 8.54-1.08 11.76-.35-.99.47-3.67 1.19-4.84 1.6-9.08 3.19-14.24 6.53-24.18 8.71-2.83.61-9.33 1.16-11.69-.17zM533.58 357.71c.2-.16.13-.13.48-.27 1.46-.57 6.82-.12 8.24.11 2.48.4 4.64 1.28 6.81 2.16 6.14 2.49 8.96 7.06 10.45 7.87-.12-2.22-1.2-3.86-1.4-6.03.88.37 1.13 1.27 1.71 2.57.41.93.74 1.7 1.15 2.7 1.97 4.81 2.57 7.56 2.63 12.83.01 1.17.25 6.39-.61 7.36-.82-1.48-.84-3.79-1.12-5.79-.84-6.04-2.29-9.67-6.02-14.33-4.93-6.15-11.15-8.31-19.16-8.02-4.1.19-7.5 4.73-7.52 6.61 16.21.76 25.14 6.16 30.17 20.11.98 2.71 2.97 10.75 2.67 13.98l-2.49-5.76-2.97 5.34c-3.15 5.51-6.04 10.23-11.86 13.58-9.12 5.24-15.96 4.4-18.69 6.55-.95.75-3.33 3.75-3.72 4.82 1.97-.03 11.32-2.4 15.96-2.73 6.45-.47 11.09-.14 16.23 2.22 10.23 4.69 13.73 11.18 23.92 13.43 14.64 3.23 32.65-3.25 38.11-16.25.96-2.28 1.79-4.18 2.43-6.87.36-1.52 1.35-7.13.67-8.42-2.18-1.46-6.76.46-8.86 1.1-18.55 5.62-20.09-.05-27.75 1.01-2.94.41-5.77 1.36-8.58 2.21-2.96.89-5.7 1.32-8.68 1.96-3.91.84-3.63.41-8.92 1.81-2.09.55-6.53 2.16-8.65 2.17.65-.88 4.46-2.69 5.95-3.68 7.23-4.81 19.72-17.69 22.97-25.89 3.88-9.81 1.82-22.61-3.42-31.66-6.64-11.49-22.57-18.51-29.07-29.63-4.12-.12-6.36 4.1-6.25 8.75.16 6.6 3.9 9.66 4.06 10.61-1.15.1-4.67-.66-6.1-.83-9.53-1.1-19.74 3.25-27.33 8.37-2.24 1.51-7.24 4.66-7.95 6.57 4.33-.36 7.25-3.08 17.26-.55 1.73.44 6.17 2.24 7.65 2.11 2.19-.19 5.28-2.35 7.6-2.2m56.75 61.3c2.27-.59 4.91-.74 7.31-1.41 4.44-1.25 8.22-2.88 12.18-4.98 1.25-.66 4.41-2.91 5.41-3.14-.4 1.33-3.16 3.89-4.24 4.72-3.31 2.54-8.16 4.51-12.54 4.98-1.25.14-6.89.65-8.12-.17zm-33.07-2.21c2.9-1.23 8.05-.51 11.07.17 8.58 1.93 13.08 7.32 22.27 9.13 3.11.61 4.56.33 5.38.65l.34.18c-8.41 1.24-14.05-.02-20.86-3.1-4.08-1.85-8.93-4.19-13.26-5.51-1.21-.37-4.12-.82-4.94-1.52zM651.33 330.76c-.41-.26-2.5-5.88-2.89-6.72-1.1-2.35-2.09-4.38-3.17-6.72-.9-1.98-2.33-5.09-3.47-6.44-4.98-5.88-17.13 1.78-7.17 11.4 1.47 1.42 9.13 8.29 9.36 10.3-.59-.13-4.69-3.65-5.52-4.24-2.09-1.51-3.89-2.73-6.19-3.9-4.23-2.16-10.77-5.44-15.14-1.15-3.49 3.43-4.03 11.72.05 14.61 4.14 2.93 14.01 2.51 16.53 3.62-.38.47-.59.46-1.32.65l-5.19 1.09c-4.55.86-9.65 1.24-11.3 5.25-1.06 2.58.19 4.71 1.86 5.78 8.03 5.18 20.52-5.48 26.48-2.64 4.29 2.04 1.63 8.43.54 12.2-1.39 4.85-1.03 10.19 1.99 13.09 1.47 1.42 3.37 2.23 6.15 2.23 3.25 0 3.51-1.43 4.1-4.31.97-4.7.74-13.34 1.34-15.35.56.08.28-.1.6.41.01.01.24.76.24.76l1.34 4.97c.58 2.08 1.35 4.25 2.13 6.26.87 2.25 1.68 3.79 4.21 4.24 2.65.47 5.31-.24 7.04-1.3 1.74-1.06 2.97-2.25 4.03-4.27 1.54-2.94.44-4.27-.97-6.29-1.11-1.59-6.64-8.83-6.86-10.05 1.92.34 9.71 9.16 15.47 8.51 2.34-.26 4.01-1.49 4.15-4.07.45-8.2-9.91-12.14-16.86-11.55-1.27.11-2.21.5-3.53.35 6.81-4.93 21.76-.61 21.54-12.43-.17-9.04-8.44-9.49-15.26-5.34-1.16.71-4.25 3.37-5.17 3.55.3-1.28 5.03-8.08 6.08-10.11 2.38-4.65 1.7-9.58-2.83-10.9-4.33-1.26-6.82 4.62-7.82 7.95-1.01 3.36-1.63 5.88-2.9 9.17l-.97 2.07c-.3.35-.15.27-.65.45.34-7.1 1.67-20.01-2.14-25.74-2.31-3.47-8.74-4.16-12.42-1.44-2.12 1.57-1.54 3.99-.85 6.39.68 2.37 1.33 4.11 2.13 6.36.65 1.77 4.27 11.61 3.23 13.3m2.58 6.58c4.89-.76 8.64 2.57 9.48 6.61 1 4.81-2.15 9.35-6.6 9.69-11.57.89-13.43-14.66-2.88-16.3zM180.1 331.91c-.47-.24-.46-.07-1.01-1.2-.29-.58-.41-.83-.64-1.36-2.43-5.76-3.68-18.4-10.93-17.26-4.47.7-5.03 6.63-3.06 10.66 1.16 2.36 5.89 8.55 6.16 10.13-1.56-.48-3.45-2.29-5.09-3.34-1.87-1.19-3.65-1.96-6.2-2.25-3.06-.35-5.08.05-6.54 1.74-1.27 1.48-2.14 3.71-2.21 6.22-.15 5.46 3.38 7.57 8.08 8.6 2.52.55 12.41 2.01 13.38 3.42-2.43.38-6.02-1.42-13.49 1.85-3.62 1.59-6.74 4.33-6.72 9.35.02 5.77 6.67 4.73 10.09 2.71 3.21-1.9 7.17-6.26 9.26-6.77-.3 1.67-5.62 8.29-6.67 9.96-2.99 4.72-.05 8.75 3.54 10.69 1.69.92 4.35 1.73 6.77 1.21 2.26-.48 3.22-2.31 4.15-4.34 1.82-3.94 2.39-8.77 4.02-12.73.72.81.48 1.92.59 3.5.26 3.89.19 7.93.64 11.88.33 2.91.8 4.23 3.67 4.63 2.86.4 4.91-.47 6.52-1.91 8.89-7.95-3.97-20.27 2.15-25.31 2.83-2.33 10.04.56 12.97 1.58 4.54 1.59 8.86 3.19 13.66.64 4.37-2.31 3.07-7.82-1.89-9.62-3.4-1.24-11.66-1.48-13.96-2.7 1.19-1.43 12.59-1.87 15.94-3.94 4.44-2.73 4.42-10.92 1.12-14.64-3.91-4.4-10.52-1.81-14.93.81a56.289 56.289 0 0 0-5.98 4.11c-1.02.8-4.85 4.34-5.51 4.57.61-2.2 7.46-8.83 9.1-10.67 1.5-1.69 3.17-3.38 3.21-6.7.04-3.32-1.32-5.11-3.7-6.2-6.42-2.96-8.62 4.01-10.42 8.05l-5.87 13.91c-1.21-2.08 2.98-13.34 3.77-15.64 1.96-5.71 3.93-11.27-3.79-12.44-3.22-.49-6.22.46-7.75 2.12-1.61 1.74-2.21 4.31-2.58 7.38-1.24 10.18.33 12.78.15 19.3m14.46 15.04c-1.05 4.1-4.39 7.18-9.72 6.64-5.1-.52-7.4-4.95-6.62-9.64 1.78-10.62 19-7.4 16.34 3z"/><path d="M445.97 354.82c.06 18.89 4.82 33.87 13.36 46.66 6.73 10.09 12.11 16.77 22.94 21.88 1.75.83 9.11 3.9 11.02 3.94.39-.87 1.68-4.07 1.74-4.99-5.73-1.5-7.42-1.6-13.06-4.94-4.03-2.39-7.17-5.34-9.7-8.23-5.75-6.55-9.94-14.55-9.92-26.47.03-12.35 4.1-24.48 14.54-30.12 7.72-4.18 15.2-3.5 21.11-8.54 3.06-2.61 3.94-5.03 5.82-9.13 3.15-6.87 6.39-9.18 13.83-8.45 3.82.37 4.88 1.41 5.83 1.47.05-2.42-4.75-6.48-6.66-7.72-7.18-4.68-15.2-5.05-23.07-1.83-2.83 1.16-7.9 3.76-11.34 3.37-.29-3.42-1.38-5.83-3.23-7.7-2.31-2.34-5.16-.43-7.71.83-5.19 2.57-9.57 4.76-13.39 8.42-8.55 8.18-12.15 19.04-12.11 31.55M358.47 321.57c-4.07.09-7.8-1.88-11.07-3.14-8.21-3.16-15.05-2.6-22.86 1.66-2.54 1.38-6.7 5.04-6.83 7.42 1.53-.17 2.69-.88 6.03-1.1 14.65-.95 11.03 10.79 19.19 17.69 2.72 2.3 6.35 3.67 10.13 4.63 9.55 2.44 13.94 4.47 18.88 10.56 4.76 5.87 6.91 13.5 6.93 22.98.02 10.9-4.07 20.18-9.4 26.56-4.23 5.08-9.24 8.67-15.63 11.42-2.47 1.06-4.37 1.45-6.78 2.27l1.5 4.56c5.97-.53 15.75-6.45 20-9.67 10.08-7.64 19.28-24.46 22.82-36.91 3.62-12.74 5.64-32.33.01-45.09-5.32-12.04-11.72-15.25-22.43-20.77-4.09-2.11-4.92-3.04-7.37-.9-1.86 1.63-2.91 4.38-3.12 7.83M570.83 303.15c.08 21.25 13.85 29.42 17.82 43.54l1.92 6.89c.66-.27.79-1.62.94-2.6.56-3.59.96-7.02.96-10.69-.01-12.82-8.41-21.68-8.41-33.57.41.46 1.13 3.4 1.45 4.46 3.39 11.22 9.51 13.99 9.49 31.53-.03 33.7-14.12 41.56-15.01 44.45 3.99-.9 10.6-7.67 13.2-11.14 10.17-13.56 15.52-40.68 15.53-58.34.01-9.05-1.58-17.09-4.98-24.07-3.07-6.28-7.75-11.46-11.45-17.62-.85-1.42-2.03-3.57-2.91-4.38-1.14-1.04-3.71 1.34-4.55 1.97-7.91 6.03-14.04 18.4-14 29.57M232.86 319.9c-.01 16.58 5.9 43.75 15.68 56.61 1.83 2.41 9.28 10.51 13.06 11.08-.81-2.81-15.49-13.4-15.38-44.07.07-20.35 6.93-21.38 10.05-35.16.34-1.5.56-4.26 1.03-5.51 1.4 2.45-2.56 15.84-3.83 19.06-2.43 6.18-4.74 11.2-4.72 18.98.01 2.4.18 4.69.52 7.03.15 1.06.36 2 .58 3.05.39 1.83.51 2.31 1.59 2.21.12-.2 1.43-5.7 1.72-6.55 5.61-16.48 16.78-23.26 16.71-42.88-.03-8.01-1.9-13.75-5.25-19.64-1.94-3.4-5.3-7.87-8.45-10.12-.61-.44-3.09-2.18-3.93-2.32-1.64 1.29-5.28 7.72-6.8 9.94-9.3 13.58-12.54 18.64-12.58 38.29"/><path d="M436.16 269.03c0 7.07.37 19.14-.49 25.86-1.54 12.02-5.39 15.37-7.71 26.9-2.27 11.3-3.29 32.04-3.29 43.94 0 19.95 4.43 36.51 13.05 52.93 1.14 2.17 2.67 4.65 4.14 6.98 1.09 1.72 3.52 5.82 5.9 5.01.92-.67.35-3.37.02-4.45-.67-2.23-4.48-8.4-5.85-11.12-8.83-17.47-13.06-35.27-13.07-56 0-5.89.24-12.96 1.52-18.3 1.53-6.38 3.23-9.06 6.22-13.75 2.3-3.59 5.92-8.43 7.91-11.88 2.35-4.08 5.45-8.2 7.85-12.13 4.98-8.18 10.04-17.2 10.3-29.53.29-13.54-5.62-17.49-7.26-22.66-1.02-3.2-.74-4.92-2.71-7.39-1.95.13-10.22 8.32-11.37 9.58-3.55 3.89-5.14 8.93-5.16 16.01M392.64 430.63c2.89.4 3.55-.84 4.84-2.45 2.73-3.4 6.46-10.3 8.33-14.08 3.25-6.58 6.1-14.64 7.76-22.33 3.66-16.93 2.29-25.63 1.68-41.58-1.23-32.11-11.15-40.46-11.53-63.59-.25-15.5 3.1-24.95-8.01-36.47-1.15-1.19-6.52-6.41-8.41-6.71-1.38 1.28-2.24 6.7-4.65 11.08-2.17 3.94-3.74 6.36-4.56 11.21-1.62 9.53.22 19.17 3.77 26.73 7.05 15.02 17.32 25.52 25.15 38.04 5.24 8.37 5.81 14.27 5.69 25.76-.22 21.29-4.94 44.89-15.51 63.17-1.4 2.42-4.67 8.27-4.55 11.22M312.11 198.66c.42.45.05.21.7.44 1.15.41 3.76-.62 11.57 3.26 7.28 3.62 3.24 3.54 11.35 1.16 23.82-7 59.52-10.67 84.48-10.8 5.26-.03 10.37.13 15.54.27 9.93.28 19.35 1.18 29.17 2.48 4.71.62 9.29 1.35 13.97 2.01 5.4.76 21.19 4.04 26.09 5.56 9.03 2.8 5.66 2.49 11.64-.28 1.91-.88 3.28-1.86 5.3-2.58 3.54-1.28 5.8-.92 6.66-1.39-.27-.75-.43-.42-2.8-1.03l-8.98-2.5c-4.27-1.13-8.31-1.93-12.57-3.03-5.49-1.41-20.5-4.07-26.28-4.82-1.93-.25-4.58-.65-6.58-1.02-2.17-.41-4.58-.53-6.71-.92l-14.38-1.29c-45.07-3.19-82.35.65-125.91 11.29-3.81.93-8.68 1.99-12.26 3.19M640.04 354.97c-4.12.91-13.83 3.72-17.36 3.85-4.83.18-6.41-1.84-8.68-1.72-2.03.1-5.04 3.14-6.06 4.58-10.53 14.9 6.17 35.68 23.6 33.47 7.42-.94 10.12-8.02 12.5-13.94 1.19-2.96-3.43-5.32-3.31-12.06.14-8.11 6.9-15.86-.69-14.18m-27.35 26.58c5.9 3.29 13.5.96 18.72-2.44.79-.51 1.67-1.19 2.29-1.76.71-.65 1.46-1.55 2.2-1.85-1.88 3.73-6.77 6.92-10.85 8.33-2.5.86-5.48 1.31-8.41.84-2.29-.37-3.44-.96-5.22-2.01-.9-.53-1.02-.53-1.15-1.46 5.49-1.11 10.62-4.59 13.9-7.52 1.85-1.65 3.54-3.75 5.05-5.65.98-1.23 3.83-5.44 4.98-5.78-.59 2.51-5.75 9.81-8.27 12.18-2.92 2.75-9.68 6.74-13.24 7.12zM199 355.01c-1.3.62-1.44 1.28-.67 3.71 1.89 6 3.98 9.85 1.31 16.93-1.36 3.62-3.46 3.05 1.04 11.39 2.6 4.82 5.25 8.24 12.63 8.05 6.17-.16 11.46-3.43 14.43-6.45 3.04-3.09 6.5-7.03 7.84-12.76 1.52-6.49.01-12.05-3.56-16.15a12.5 12.5 0 0 0-2.7-2.34c-1.68-1.07-2.1-.64-3.82-.06-11.06 3.72-22.68-4.15-26.5-2.32m9.01 7.48c1.19.59 7.09 7.73 9.86 10.17 1.5 1.33 3.59 3.03 5.77 4.32 2.52 1.49 3.12 1.94 5.76 2.92 0 0 .42.16.44.17.58.31.28.13.54.39-1.05 1.64-4.26 2.61-6.78 2.71-3.1.13-5.82-.25-8.4-1.2-3.34-1.24-9.86-5.62-10.58-8.14 2.43 1.5 3.32 3.6 9.77 6.15 4.35 1.72 9.04 2.29 13.56.56-2.14-1.17-3.09-1.24-6.26-3.21-1.88-1.17-3.88-2.69-5.36-4.13-2.06-2.01-7.86-8.47-8.32-10.71zM300.45 391.34c-.54 9.76 6.9 19.77 13.63 20.91 2.79.47 4.78-1.62 8.8-2.78 3.18-.92 7.11-.86 10.27.12 2.79.86 5.34 2.5 7.74 3.76 4.3 2.25 12.6-3.08 15.48-6.49 2.69-3.18 5.22-8.13 3.98-12.57-1.92-6.86-2.92 5.88-21.64-.95-6.45-2.35-10.61-4.66-19.04-3.24-3.26.55-5.96 1.7-9.19 2.32-4.91.93-6.17-.62-10.03-1.08M481.15 391.95c-.87 1.8-1.56 2.89-1.35 5.68.35 4.78 5.19 10.37 8.98 12.76 2.13 1.35 7.57 4.05 10.99 2.97 4.47-1.4 11.51-9.12 24.68-1.51.88.51 1.46 1.13 2.65.84 1.16-.29 3.87-1.86 4.81-2.49 2.91-1.92 5.1-4.4 6.83-7.68 1.21-2.28 3.7-8.3 2.69-11.29-1.35-.05-3.14 1.4-7.98 1.03-7.17-.55-12.96-4.7-23.72-1.02-6.09 2.08-13.76 6.83-22.43 4.09-3.48-1.11-4.96-3.08-6.15-3.38M57.01 489.57c1.21-.14 1.51-.79 2.09-1.51l7.13-10.03c1.23-2.07 1.36-2.6 1.81-5.29 1.32-7.81 3.06-15.36 5.13-22.68 2.01-7.1 4.35-13.98 7.09-20.58 1.74-4.2 3.27-5.39 1.78-10.82-.5-1.82-.97-3.54-1.42-5.46-.25-1.05-.83-5.3-1.14-5.88-.7.33-.66.75-1.23 1.97-8.47 18.3-14.44 36.94-18.13 57-.95 5.14-2.96 18.34-3.11 23.28M761.55 407.2c-.26.57-.8 4.94-1 6.03-.75 4.12-2.59 8.39-1.29 11.72.58 1.48 1.34 3.25 2.03 4.85 5.48 12.73 9.7 29.62 12.26 43.34.43 2.32.72 3.44 1.93 5.22 2.19 3.23 6.49 8.95 9.43 11.23.1-1.06-1.36-9.88-1.62-11.51-.46-2.91-1.31-9.18-1.89-11.54-.85-3.5-1.45-7.31-2.41-10.83-.95-3.49-1.68-6.93-2.69-10.44-2-6.96-4.11-13.48-6.48-19.96-.49-1.33-7.19-17.71-8.27-18.11M733.79 347.56c.14.63 1.54 1.52 2.77 2.78.95.97 1.65 1.86 2.6 3.06 1.68 2.12 3.05 4.19 4.57 6.93 1.6 2.89 6.29 13.62 8.33 14.66 1.93-.15 4.43-5.28 5.24-7.23 2.84-6.84 4.88-25.55 4.89-32.96-3.62.26-12.4 3.79-15.47 5.2-5.16 2.36-8.87 4.35-12.93 7.56M88.96 374.58c2.66-2.02 6.06-9.78 8.56-13.82 3.06-4.94 5.56-8.92 10.29-12.09-.27-1.04-1.59-1.85-2.75-2.69-6.54-4.73-17.96-9.76-25.52-11.26-.53 3.28 1.5 18.35 2.18 22.27.58 3.39 1.36 6.84 2.5 9.85.74 1.98 3.24 7.2 4.74 7.74M340.73 233.31c3.52-1.95 5.06-.75 9.23-.7 3.11.04 6.93-.17 9.57-1 4.54-1.43 9.17-7.03 7.99-13.23-.78-4.14-9.89-5.65-14.24-.93-1.49 1.62-3.09 4.08-4.58 5.91-1.61 1.98-3.39 3.7-4.83 5.88-2.01 3.04.25 1.18-2.73 2.52-2.2.99-1.22.92-4.31.91-7.87-.04-11.3 13.74-3.42 19.4 5.03 3.62 11.66 2 13.14-3.96.84-3.38-.26-9.23-3.03-12.21-1.26-1.35-2.6-1.87-2.79-2.59M492.21 385.4c3.55-.06 8.64-2.56 15.81-2.18 5.64.3 10.57 1.66 16.34 1.54 5.46-.12 10.29-1.55 14.66-3.19 2.71-1.01 6.94-2.89 9.76-3.51 1.08-.24 2.82-.33 3.65-.83-.65-1.13-4.5-3.94-5.84-4.68-2.14-1.18-4.96-2.34-7.77-2.96-7.18-1.6-12.31-.91-19.1.53-5.9 1.26-11.03 3.07-15.57 5.67-3.09 1.78-11.14 6.77-11.94 9.61M186.86 414.75c1.01-1.48.41-8.35.17-10.4-.82-7.21-1.04-8.93-7.45-9.12-2.59-.08-4.32 4.19-5.15 6.13-.46 1.09-1.01 3.39-1.7 3.93-.02-2.27 1.1-4.7 1.98-6.29 1.45-2.62 3.53-4.08 3.56-4.81-.86-3.39-6.51-2.8-9.15-.98-3.79 2.6-4.43 6.08-5.69 7.31-.73-.32-.82-.55-1.48-1.21-.5-.49-.82-.81-1.29-1.33-6.72-7.61-5.75-13.16-8.68-18.16-1.11-1.9-3.28-4.65-6.33-4.58.05.81 2.27 5.87 2.73 7.37 2.35 7.6 3.03 15.24 9.19 21.29 2.97 2.92 8.48 5.66 13.26 6.9 4.11 1.07 6.1-.22 9.56.11 4.26.38 4.43 3.54 6.47 3.84M289.45 377.39c2.58-1.02 2.01-2.39 6.69-.61 2.11.8 4.21 1.71 6.22 2.65 15.09 7.06 20.18 2.9 30.7 4.39 2.64.37 4.96.88 7.27 1.64 1.43.47 5.54 2.44 6.47 2.5-.34-2.94-6.88-9.77-9.54-11.75-9.35-6.95-22.43-9.07-34.1-6.46-2.84.64-5.49 1.46-7.95 2.78-1.72.92-5.27 3.28-5.76 4.86M598.6 228.46c-1.21-2.2-27.83-14.76-31.56-16.24l-21-8.08c.16 2.87 3.49 9.24 4.93 12.02.7 1.34 2.06 1.47 3.5 2.17 2.49 1.2 5.33 2.33 7.79 3.51 2.5 1.2 5.12 2.47 7.64 3.69 3.54 1.72 11.75 5.72 14.83 7.57 4.8 2.88 4.03 2.45 7.18-.08 1.14-.91 2.04-1.57 3.21-2.43 1.35-.99 2.76-1.61 3.48-2.13M243.01 228.26c.3.63 3.89 2.93 4.57 3.47l4.48 3.79 12.17-6.58c5.53-2.86 13.16-6.59 18.93-9.14 1.48-.65 5.27-2.14 6.5-2.99 1.24-.86 5.84-10.85 5.88-12.85-6.86 2.2-20.51 8.02-27.17 11.11-4.2 1.94-8.36 3.93-12.85 6.32-2.8 1.5-10.34 5.35-12.51 6.87M679.79 402.51c-.4-.57-.35-1.86-.87-3.04-1.22-2.76-2.33-4.82-5.32-6.39-3.89-2.05-9.56-1.92-11.28 1.71l.47.64c1.14 1.29 1.92 3.58 2.65 5.24.51 1.17.86 2.05 1.25 3.18.18.51.37 1.12.56 1.66.11.32.21.47.27.75l-.05.83c-1.38-1.49-3.02-8.91-5.85-12.17-4.23.57-6.06 2.24-7 6.42-.81 3.58-.53 9.08.47 12.29 1.98-.38 2.09-1.59 6.13-2.45 3.65-.77 1.77-.33 5.65-.4 5.41-.1 13.85-4.28 16.86-7.63 5.62-6.26 6.18-16.6 9.92-24.22.51-1.04 1.44-2.3 1.55-3.58-5.77-.18-7.48 7.76-8.57 12.77-.64 2.94-1.3 5.5-2.4 8.04-.57 1.36-3.59 5.76-4.44 6.35"/><path d="M339.73 228.26c-.92.66-2.62.75-3.48 1.42-.28.22-2.49 1.97-2.59 2.15 1.47-.14 2.04-.39 3.79-.3 1.4.08 2.71.23 3.94-.34 1.7-.78 3.07-3.08 2.88-5.6 2.17-.28 3.82-2.61 5.03-4.45 1.4-2.13 2.51-4.14 1.94-7.52-.8-4.77-5.01-9.61-10.62-8-4.9 1.4-12.24 10.26-5.87 17.87 1.51 1.81 4.57 3.67 4.98 4.77M345.05 234.61c.48 1.78 2.8 2.94 3.64 7.25.65 3.38-.06 6.44 1.81 9.08 3.02 4.26 12.26 2.92 16.63.34 1.63-.96 1.57-1.52 1.14-3.6-.3-1.44-.74-2.86-1.25-4.18-1-2.6-2.65-5.14-4.31-6.59-2.1-1.83-4.28-2.64-7.84-3.02-3.09-.35-7.67-.62-9.82.72M495.9 234.31c-2.51-.87-6.81-.91-9.86-.56-5.93.69-9.41 4.56-11.35 9.84-.41 1.12-.93 2.84-1.13 4.08-.44 2.8-.28 2.77 1.53 3.81 4.4 2.54 13.13 3.76 15.97-.82 1.19-1.92.79-5.01 1.69-8.75.37-1.54 1.34-4.62 2.18-5.77.44-.6.94-.93.97-1.83M321.18 171.34c-.26.11-3.94-.75-4.93-.81-4.78-.3-9.7 7.72.3 7.8-.63 1.11-3.41 1.71-4.44 3.41-1.33 2.18 1.16 4.1 2.59 4.7 3.09 1.3 7.44-5.46 9.05-6.26-.82 3.21-3.02 4.25-.12 7.21 1.84 1.87 4.21 3.55 7.05 1.21.69-.57 1.63-1.88 1.96-3.07.72-2.58-2.03-4.22-4.09-6.09-.6-.54-2-2.05-3.1-2.31-1.66 2.44-1.88.64-2.79-.28-.65-.66-1.21-.73-1.87-1.14 0-1.08.44-1.3 1.54-1.32.38-3.7 1.91-.29.13-8.98-.63-3.04-3.08-4.54-6.79-4.12-3.43.38-3.74 6.56-2.54 7.34.37.24 4.6.02 8.05 2.71M729.56 330.47c-3.7.67-5.86.98-9.08 2.25-7.82 3.09-5.71 5.15-4.92 7.55l2.19 6.31c.84 2.42 3.22 11.57 5.46 11.71 1.53.09 2.14-2 2.54-3.17 2.26-6.61 3.63-10.44 5.16-17.38.35-1.58.57-3.18.98-4.68.7-2.55.87-3.18-2.33-2.59M728.19 367.54c0 3.96.29 7.8.77 11.66.39 3.17 1.01 7.47 1.71 10.77.87 4.09 3.47 16.45 4.93 19.65.28-2.15-1.1-29.75-1.09-34.21 0-5.59 1.25-15.75.48-19.4-.25-1.2-1.24-4.28-2.51-4.73-1.31.72-2.96 5.51-3.33 6.83-.8 2.91-.95 6.09-.96 9.43M106.1 408.96c.75-.82 3.64-12.84 3.87-13.78 1.18-4.8 2.21-9.49 2.87-14.72.65-5.08 1.41-11.2.96-16.55-.35-4.08-2.21-10.71-4.65-12.86-2.73 2.22-2.32 9.13-2.15 13.06.46 10.45.54 19.27-.32 29.81-.38 4.61-.98 10.45-.58 15.04M520.53 171.15l-.04 1.36c-.68.39-.84.22-1.24.84.33 1.57 3.11 1.49 2.86 3.38-4.35.53-2.52-3.19-5.99 1.1-.52.65-1.48 1.28-2.2 1.83l-4.67 3.58c-.61 1.12 1.4 9.49 8.01 4.81 1.6-1.13 3.24-2.19 2.44-4.78-.36-1.17-2.24-4.7-1.79-5.62 1.46 1.44 2.36 7.45 7.48 8.4 2.6.48 5.04-.71 5.06-3.01.01-2.55-3.32-2.43-4.12-4.11 1.32-.78 2.61-.86 3.85-2.19 2.54-2.71-1.59-6.33-4.38-6.72-2.16-.29-3.64.47-5.27 1.13M419.49 425.59c.11 3.27-.66 8.49-.95 12-.68 8.19-2.36 16.38-1.22 24.26.25 1.77 1.73 8.34 3.96 9.08 3.81-7.48 3.36-13.49 1.98-22.65-.52-3.47-2.9-21.18-3.77-22.69M696.95 450.04c1.23-.64 3.23-6.57 3.86-8.2 2.21-5.78 1.95-11.69 4.96-18.87.67-1.6 3.55-7.28 3.74-8.26-2.56.35-5.51 3.67-6.79 5.45-5.48 7.55-3.58 15.22-5.14 25.15-.18 1.1-1.04 3.97-.63 4.73M192.21 346.75c1.12-3.78-1.19-7.04-4.53-7.47-3.88-.5-6.9 1.59-7.39 4.9-1.27 8.45 9.56 10.52 11.92 2.57M654.22 339.45c-7.38 1.21-6.08 13.21 2.95 12.03 6.77-.88 5.74-13.45-2.95-12.03M144.27 449.92c-.13-1.5-.78-3.31-1.08-4.96-.33-1.84-.48-3.55-.71-5.42-.85-7.1-.46-13.84-4.67-19.71-.94-1.31-4.75-5.38-6.48-5.92.3 1.31 1.33 3.2 1.84 4.3.62 1.35 1.27 2.73 1.85 4.21 1.16 2.92 2.04 6.15 2.73 9.59.69 3.44 1.25 6.65 2.34 9.73.67 1.89 2.75 7.35 4.18 8.18"/><path d="M330.63 170.31c-3.32 1.06-5.56 5.23-3.54 6.94 3.84 3.25 8.08 6.05 11.31.9.69-1.11 1.57-3.21.72-4.67-.87-1.52-5.67-4.06-8.49-3.17M510.2 170.24c-3.67.92-7.36 1.25-7.06 4.72.25 2.93 2.6 6.21 5.68 6.1 1.36-.05 3.2-1.07 4.18-1.71 1.05-.68 2.36-1.5 2.7-3.22.4-1.98-1.32-6.93-5.5-5.89M244.39 426.68c2.36 1.33 8.85.78 11.7.16 9.94-2.18 15.1-5.52 24.18-8.71 1.17-.41 3.84-1.13 4.84-1.6-3.22-.73-8.78-.42-11.76.35-10.1 2.61-14.44 8.9-25.94 9.58l-3.02.22zM595.98 426.75c-.83-.31-2.28-.03-5.38-.65-9.18-1.81-13.69-7.2-22.27-9.13-3.02-.68-8.17-1.4-11.07-.17.81.71 3.73 1.15 4.93 1.52 4.33 1.32 9.18 3.67 13.26 5.51 6.81 3.08 12.45 4.34 20.86 3.1l-.33-.18z"/><path d="M515.95 170.48c.02 1-.06 1.88.39 2.64.45.76.99.93 2.15.8.12-.82-.1-.81.29-1.54.27-.5.64-.15.15-1.27-1.71-.78-1.08 1.14-2.24 1.62-.98-1.62.83-3.7 1.04-4.35.31-1 .9-4.33.8-5.32-.18-1.87-4.5-10.41-8.83-2.73-1.69 2.99-1.44 6.25 2.16 8.16 1.28.69 2.84 1.45 4.09 1.99M323.43 175.46c.33.14.49.19.88.34l1.15.49c-.07-2.69-.38-4.36 1.34-5.91 1.3-1.17 2.97-1.62 4.53-2.73 4.27-3.03.94-7.36-1.17-9.22-3.37-2.95-7.51 3.26-7.2 5.57.39 2.93 2.32 4.22 1.95 8.95-.04.55-.09 1.05-.39 1.39-.53.62-.82.15-1.09 1.12"/><path d="M523.71 161.55c-2.07.36-4.01-.73-4.61 4.54l-.33 3.26c.12.97.42.79.54.84 1.49.61 5.89-1.13 7.43-1.71 3.54-1.33 2.19-7.84-3.03-6.93M225.67 408.94c1.74 1.53 2.46 4.57 9.81 7.86 2.89 1.29 11.62 3.48 15.13 2.21-.43-.29-4.85-.92-7.18-1.68-4.09-1.35-8.35-3.37-12.17-5.38-1.01-.53-4.72-2.85-5.59-3.01M590.33 419.01c1.23.82 6.87.3 8.11.17 4.38-.47 9.23-2.44 12.54-4.98 1.08-.83 3.84-3.39 4.24-4.72-1 .23-4.16 2.48-5.41 3.14-3.96 2.09-7.73 3.73-12.18 4.98-2.39.67-5.03.83-7.3 1.41"/></g></g></svg>